<svg width="1536" height="768" viewBox="0 0 1536 768" fill="none" xmlns="http://www.w3.org/2000/svg">
<rect width="1536" height="768" fill="#0066FF"/>
<circle cx="313.028" cy="402.539" r="145.157" fill="#0066FF"/>
<path d="M228.795 541.267C195.369 522.142 170.768 495.664 157.763 459.414C155.527 453.182 153.24 450.835 146.192 450.01C130.165 448.132 118.283 438.767 111.036 424.33C99.4727 401.298 99.9989 378.68 115.157 357.292C122.028 347.598 131.566 341.261 143.339 339.035C147.746 338.202 150.075 336.212 151.862 332.168C162.875 307.246 179.289 286.352 200.355 269.189C219.364 253.701 241.076 243.477 264.783 237.413C265.661 237.189 267.848 236.689 268.741 236.509C275.297 235.188 279.543 234.21 283.612 227.203C291.16 214.203 302.879 205.987 318.79 206C331.674 206.011 338.623 217.152 333.311 228.933C332.692 230.307 331.699 231.552 331.843 233.731C336.059 234.777 340.419 235.927 344.811 236.938C377.876 244.545 406.363 260.289 429.586 285.113C442.335 298.74 452.135 314.389 459.378 331.589C460.777 334.913 462.563 336.892 466.353 337.814C485.986 342.588 496.967 356.084 501.474 374.984C506.766 397.175 502.067 417.479 487.364 435.023C480.181 443.594 470.659 448.736 459.521 450.514C457.525 450.833 456.244 451.159 455.71 453.516C450.546 476.295 438.108 495.056 422.214 511.528C401.762 532.722 377.296 547.516 348.743 555.436C319.911 563.435 291.115 563.253 262.371 555.452C250.703 552.285 239.631 547.42 228.795 541.267ZM350.68 304.743C337.815 307.325 327.027 313.698 318.07 323.118C314.879 326.474 312.533 326.334 309.304 323.209C303.585 317.675 297.46 312.469 290.055 309.342C266.383 299.345 243.312 300.636 221.188 313.922C193.338 330.646 184.114 359.618 188.525 388.865C190.805 403.984 198.756 416.581 209.153 427.503C212.89 431.428 213.425 434.515 210.992 439.531C203.907 454.137 204.407 468.895 211.491 483.595C221.583 504.538 238.882 517.351 259.613 525.839C283.297 535.536 308.119 537.302 333.435 534.584C359.276 531.81 382.192 523.043 400.886 504.247C418.815 486.221 424.745 465.244 417.238 440.974C415.41 435.064 416.111 431.153 420.276 426.662C436.5 409.169 441.021 387.72 438.359 364.909C436.054 345.16 426.347 329.225 409.973 317.129C392.148 303.962 372.679 300.682 350.68 304.743Z" fill="white"/>
<path d="M301.451 479.41C323.197 483.662 343.411 480.913 362.206 469.534C364.164 468.349 366.006 466.941 368.047 465.929C371.716 464.111 374.901 465.173 377.442 468.18C379.914 471.104 379.436 474.103 377.253 476.959C372.246 483.51 363.711 488.158 357.847 490.247C328.489 500.704 299.589 500.385 271.556 485.518C267.612 483.426 264.087 480.762 260.986 477.559C257.495 473.952 256.96 470.123 259.413 466.887C262.118 463.318 266.321 462.619 270.849 465.751C278.699 471.183 286.9 475.758 296.175 478.22C297.792 478.649 299.432 478.992 301.451 479.41Z" fill="white"/>
<ellipse cx="269.2" cy="371.852" rx="19.2693" ry="19.728" fill="white"/>
<ellipse cx="379.31" cy="371.852" rx="19.2693" ry="19.728" fill="white"/>
<circle cx="340.772" cy="435.624" r="9.17584" fill="white"/>
<circle cx="304.068" cy="435.624" r="9.17584" fill="white"/>
<path d="M641.001 305.927C654.083 305.927 666.062 311.733 676.939 323.345C687.963 334.956 693.474 348.479 693.474 363.912C693.474 379.199 688.036 392.648 677.159 404.26C666.282 415.725 654.597 421.457 642.103 421.457C629.61 421.457 620.717 417.929 615.426 410.874C614.25 418.076 607.929 421.677 596.464 421.677C587.204 421.677 581.546 419.693 579.488 415.725C578.459 413.52 577.797 411.609 577.503 409.992C577.356 408.228 577.283 405.656 577.283 402.275V270.651C577.283 267.27 577.356 264.771 577.503 263.154C577.797 261.39 578.459 259.48 579.488 257.422C581.546 253.453 587.278 251.469 596.685 251.469C605.945 251.469 611.53 253.453 613.441 257.422C614.617 259.627 615.279 261.611 615.426 263.375C615.719 264.992 615.866 267.49 615.866 270.871V316.73C621.746 309.528 630.124 305.927 641.001 305.927ZM621.599 377.141C625.274 381.11 629.83 383.094 635.268 383.094C640.707 383.094 645.337 381.11 649.159 377.141C652.98 373.172 654.891 368.763 654.891 363.912C654.891 359.062 653.127 354.652 649.6 350.684C646.072 346.568 641.368 344.51 635.489 344.51C629.61 344.51 624.906 346.568 621.378 350.684C617.998 354.799 616.307 359.282 616.307 364.133C616.307 368.836 618.071 373.172 621.599 377.141ZM783.164 318.053C784.046 309.822 789.852 305.706 800.582 305.706C806.314 305.706 810.577 306.147 813.369 307.029C816.162 307.911 818.073 309.455 819.102 311.659C820.278 313.864 820.939 315.848 821.086 317.612C821.38 319.229 821.527 321.728 821.527 325.108V402.275C821.527 405.656 821.38 408.228 821.086 409.992C820.939 411.609 820.351 413.52 819.322 415.725C817.264 419.546 812.193 421.457 804.109 421.457C796.172 421.457 790.807 420.502 788.014 418.591C785.369 416.533 783.825 413.593 783.384 409.772C777.946 417.562 768.833 421.457 756.045 421.457C743.405 421.457 731.646 415.651 720.769 404.039C709.892 392.427 704.454 378.978 704.454 363.692C704.454 348.259 709.892 334.809 720.769 323.345C731.793 311.733 743.846 305.927 756.927 305.927C761.925 305.927 766.481 306.809 770.597 308.573C774.712 310.336 777.579 312.027 779.195 313.644C780.812 315.113 782.135 316.583 783.164 318.053ZM743.037 363.912C743.037 368.763 744.948 373.172 748.77 377.141C752.591 380.963 757.221 382.873 762.66 382.873C768.098 382.873 772.581 380.889 776.109 376.921C779.783 372.952 781.621 368.616 781.621 363.912C781.621 359.062 779.857 354.579 776.329 350.463C772.949 346.348 768.318 344.29 762.439 344.29C756.707 344.29 752.003 346.348 748.329 350.463C744.801 354.579 743.037 359.062 743.037 363.912ZM902.818 305.927C915.899 305.927 927.879 311.733 938.755 323.345C949.779 334.956 955.291 348.479 955.291 363.912C955.291 379.199 949.853 392.648 938.976 404.26C928.099 415.725 916.414 421.457 903.92 421.457C891.426 421.457 882.534 417.929 877.242 410.874C876.066 418.076 869.746 421.677 858.281 421.677C849.021 421.677 843.362 419.693 841.305 415.725C840.276 413.52 839.614 411.609 839.32 409.992C839.173 408.228 839.1 405.656 839.1 402.275V270.651C839.1 267.27 839.173 264.771 839.32 263.154C839.614 261.39 840.276 259.48 841.305 257.422C843.362 253.453 849.095 251.469 858.502 251.469C867.762 251.469 873.347 253.453 875.258 257.422C876.434 259.627 877.095 261.611 877.242 263.375C877.536 264.992 877.683 267.49 877.683 270.871V316.73C883.563 309.528 891.941 305.927 902.818 305.927ZM883.416 377.141C887.09 381.11 891.647 383.094 897.085 383.094C902.524 383.094 907.154 381.11 910.975 377.141C914.797 373.172 916.708 368.763 916.708 363.912C916.708 359.062 914.944 354.652 911.416 350.684C907.889 346.568 903.185 344.51 897.306 344.51C891.426 344.51 886.723 346.568 883.195 350.684C879.815 354.799 878.124 359.282 878.124 364.133C878.124 368.836 879.888 373.172 883.416 377.141ZM1077.61 307.029C1086.28 310.851 1090.62 315.481 1090.62 320.919C1090.62 323.565 1090.03 326.064 1088.86 328.416C1087.68 330.767 1087.09 332.017 1087.09 332.164L1029.33 461.363C1028.15 464.156 1027.12 466.287 1026.24 467.757C1025.51 469.227 1024.26 470.623 1022.49 471.946C1020.73 473.269 1018.52 473.931 1015.88 473.931C1013.23 473.931 1009.34 472.828 1004.19 470.623C995.52 466.802 991.184 462.245 991.184 456.954C991.184 453.426 998.24 436.596 1012.35 406.465L968.475 332.605C965.535 327.754 964.066 324.153 964.066 321.801C964.066 317.098 968.034 312.394 975.971 307.691C980.969 304.751 984.864 303.281 987.657 303.281C990.449 303.281 992.728 303.869 994.491 305.045C996.255 306.221 997.505 307.47 998.24 308.793C999.121 309.969 1003.16 316.804 1010.37 329.297C1017.72 341.644 1024.7 353.183 1031.31 363.912C1032.05 361.561 1036.01 352.521 1043.22 336.794C1050.42 320.919 1054.24 312.468 1054.68 311.439C1055.27 310.41 1056.15 309.161 1057.33 307.691C1059.24 305.192 1061.88 303.943 1065.26 303.943C1068.79 303.943 1072.91 304.971 1077.61 307.029ZM1102.64 270.43C1102.64 267.049 1102.71 264.551 1102.86 262.934C1103.15 261.17 1103.81 259.186 1104.84 256.981C1106.9 253.012 1112.63 251.028 1122.04 251.028C1131.01 251.028 1136.59 253.012 1138.8 256.981C1139.97 259.186 1140.63 261.17 1140.78 262.934C1141.08 264.698 1141.22 267.27 1141.22 270.651V372.732C1141.22 378.023 1141.66 381.404 1142.55 382.873C1143.43 384.196 1145.34 384.858 1148.28 384.858C1151.36 384.858 1153.42 385.005 1154.45 385.299C1155.48 385.446 1156.73 386.034 1158.2 387.063C1161.14 388.973 1162.61 394.191 1162.61 402.716C1162.61 411.976 1161.14 417.635 1158.2 419.693C1154.38 422.339 1145.26 422.78 1130.86 421.016C1119.54 419.546 1112.19 415.798 1108.81 409.772C1104.7 402.569 1102.64 391.105 1102.64 375.377V270.43ZM1171.46 363.912C1171.46 346.274 1177.63 331.723 1189.98 320.258C1202.33 308.793 1216.44 303.061 1232.31 303.061C1248.19 303.061 1262.22 308.793 1274.42 320.258C1286.62 331.576 1292.72 346.054 1292.72 363.692C1292.72 375.892 1289.56 386.769 1283.24 396.323C1276.92 405.73 1269.21 412.711 1260.09 417.268C1251.13 421.677 1241.79 423.882 1232.09 423.882C1222.39 423.882 1212.98 421.53 1203.87 416.827C1194.76 411.976 1187.04 404.921 1180.72 395.661C1174.55 386.254 1171.46 375.671 1171.46 363.912ZM1217.54 379.787C1222.24 383.314 1227.02 385.078 1231.87 385.078C1236.72 385.078 1241.57 383.241 1246.42 379.566C1251.27 375.892 1253.7 370.453 1253.7 363.251C1253.7 356.049 1251.42 350.684 1246.86 347.156C1242.31 343.629 1237.38 341.865 1232.09 341.865C1226.8 341.865 1221.88 343.702 1217.32 347.377C1212.76 351.051 1210.49 356.49 1210.49 363.692C1210.49 370.747 1212.84 376.112 1217.54 379.787ZM1371.57 305.706C1386.27 305.706 1398.47 311.365 1408.17 322.683C1418.02 333.854 1422.94 347.524 1422.94 363.692V402.496C1422.94 405.877 1422.79 408.449 1422.5 410.213C1422.35 411.829 1421.76 413.667 1420.73 415.725C1418.68 419.693 1412.94 421.677 1403.54 421.677C1393.1 421.677 1387.07 418.958 1385.46 413.52C1384.58 411.021 1384.14 407.273 1384.14 402.275V363.471C1384.14 357.445 1382.37 352.742 1378.84 349.361C1375.46 345.98 1370.83 344.29 1364.95 344.29C1359.22 344.29 1354.52 346.054 1350.84 349.581C1347.32 353.109 1345.55 357.739 1345.55 363.471V402.496C1345.55 405.877 1345.4 408.449 1345.11 410.213C1344.96 411.829 1344.3 413.667 1343.13 415.725C1341.22 419.693 1335.56 421.677 1326.15 421.677C1316.89 421.677 1311.23 419.693 1309.17 415.725C1308.14 413.52 1307.48 411.609 1307.19 409.992C1307.04 408.228 1306.97 405.656 1306.97 402.275V324.227C1306.97 320.993 1307.04 318.568 1307.19 316.951C1307.48 315.187 1308.22 313.276 1309.39 311.218C1311.45 307.544 1317.11 305.706 1326.37 305.706C1335.34 305.706 1340.85 307.397 1342.91 310.777C1344.38 313.276 1345.11 316.289 1345.11 319.817C1345.7 318.788 1347.02 317.318 1349.08 315.407C1351.14 313.497 1353.12 311.953 1355.03 310.777C1360.03 307.397 1365.54 305.706 1371.57 305.706Z" fill="white"/>
<path d="M594.74 498.993C595.02 496.38 596.863 495.073 600.27 495.073C602.09 495.073 603.443 495.213 604.33 495.493C605.217 495.773 605.823 496.263 606.15 496.963C606.523 497.663 606.733 498.293 606.78 498.853C606.873 499.367 606.92 500.16 606.92 501.233V525.733C606.92 526.807 606.873 527.623 606.78 528.183C606.733 528.697 606.547 529.303 606.22 530.003C605.567 531.217 603.957 531.823 601.39 531.823C598.87 531.823 597.167 531.52 596.28 530.913C595.44 530.26 594.95 529.327 594.81 528.113C593.083 530.587 590.19 531.823 586.13 531.823C582.117 531.823 578.383 529.98 574.93 526.293C571.477 522.607 569.75 518.337 569.75 513.483C569.75 508.583 571.477 504.313 574.93 500.673C578.43 496.987 582.257 495.143 586.41 495.143C587.997 495.143 589.443 495.423 590.75 495.983C592.057 496.543 592.967 497.08 593.48 497.593C593.993 498.06 594.413 498.527 594.74 498.993ZM582 513.553C582 515.093 582.607 516.493 583.82 517.753C585.033 518.967 586.503 519.573 588.23 519.573C589.957 519.573 591.38 518.943 592.5 517.683C593.667 516.423 594.25 515.047 594.25 513.553C594.25 512.013 593.69 510.59 592.57 509.283C591.497 507.977 590.027 507.323 588.16 507.323C586.34 507.323 584.847 507.977 583.68 509.283C582.56 510.59 582 512.013 582 513.553ZM630.484 528.673C629.598 528.113 629.154 527.227 629.154 526.013C629.154 524.8 630.041 522.957 631.814 520.483C632.328 519.69 633.144 519.293 634.264 519.293C635.431 519.293 636.994 519.877 638.954 521.043C640.914 522.163 642.688 522.723 644.274 522.723C647.121 522.723 648.544 522.163 648.544 521.043C648.544 520.157 646.981 519.503 643.854 519.083C640.914 518.663 637.998 517.567 635.104 515.793C633.751 514.953 632.631 513.647 631.744 511.873C630.858 510.053 630.414 507.907 630.414 505.433C630.414 498.06 635.478 494.373 645.604 494.373C648.918 494.373 652.324 495.167 655.824 496.753C657.458 497.5 658.274 498.433 658.274 499.553C658.274 500.673 657.761 502.05 656.734 503.683C655.708 505.317 654.658 506.133 653.584 506.133C653.024 506.133 651.974 505.783 650.434 505.083C648.941 504.383 647.308 504.033 645.534 504.033C642.781 504.033 641.404 504.547 641.404 505.573C641.404 506.973 642.991 507.883 646.164 508.303C649.244 508.63 652.231 509.517 655.124 510.963C656.478 511.617 657.598 512.76 658.484 514.393C659.418 515.98 659.884 517.987 659.884 520.413C659.884 522.84 659.418 524.917 658.484 526.643C657.598 528.323 656.338 529.583 654.704 530.423C651.718 531.87 647.961 532.593 643.434 532.593C638.954 532.593 634.638 531.287 630.484 528.673ZM663.402 513.553C663.402 507.953 665.362 503.333 669.282 499.693C673.202 496.053 677.682 494.233 682.722 494.233C687.762 494.233 692.219 496.053 696.092 499.693C699.966 503.287 701.902 507.883 701.902 513.483C701.902 517.357 700.899 520.81 698.892 523.843C696.886 526.83 694.436 529.047 691.542 530.493C688.696 531.893 685.732 532.593 682.652 532.593C679.572 532.593 676.586 531.847 673.692 530.353C670.799 528.813 668.349 526.573 666.342 523.633C664.382 520.647 663.402 517.287 663.402 513.553ZM678.032 518.593C679.526 519.713 681.042 520.273 682.582 520.273C684.122 520.273 685.662 519.69 687.202 518.523C688.742 517.357 689.512 515.63 689.512 513.343C689.512 511.057 688.789 509.353 687.342 508.233C685.896 507.113 684.332 506.553 682.652 506.553C680.972 506.553 679.409 507.137 677.962 508.303C676.516 509.47 675.792 511.197 675.792 513.483C675.792 515.723 676.539 517.427 678.032 518.593ZM717.975 513.553C717.975 515.513 718.628 517.053 719.935 518.173C721.242 519.247 722.618 519.783 724.065 519.783C725.558 519.783 726.935 519.363 728.195 518.523C729.502 517.637 730.552 517.193 731.345 517.193C732.745 517.193 734.448 518.43 736.455 520.903C737.528 522.257 738.065 523.47 738.065 524.543C738.065 526.317 736.782 527.973 734.215 529.513C731.555 531.38 728.288 532.313 724.415 532.313C720.075 532.313 715.898 530.75 711.885 527.623C709.972 526.13 708.408 524.147 707.195 521.673C705.982 519.153 705.375 516.4 705.375 513.413C705.375 510.38 705.982 507.65 707.195 505.223C708.408 502.75 709.972 500.767 711.885 499.273C715.758 496.193 719.888 494.653 724.275 494.653C726.048 494.653 727.775 494.91 729.455 495.423C731.135 495.89 732.372 496.357 733.165 496.823L734.285 497.523C735.125 498.083 735.778 498.527 736.245 498.853C737.458 499.787 738.065 500.86 738.065 502.073C738.065 503.24 737.575 504.57 736.595 506.063C734.915 508.63 733.305 509.913 731.765 509.913C730.878 509.913 729.618 509.4 727.985 508.373C727.145 507.58 725.932 507.183 724.345 507.183C722.805 507.183 721.358 507.743 720.005 508.863C718.652 509.983 717.975 511.547 717.975 513.553ZM742.587 501.233C742.587 500.16 742.61 499.367 742.657 498.853C742.75 498.293 742.96 497.663 743.287 496.963C743.94 495.75 745.76 495.143 748.747 495.143C750.987 495.143 752.574 495.54 753.507 496.333C754.3 496.987 754.72 497.99 754.767 499.343C754.814 499.81 754.837 500.487 754.837 501.373V525.873C754.837 526.947 754.79 527.763 754.697 528.323C754.65 528.837 754.44 529.443 754.067 530.143C753.46 531.357 751.664 531.963 748.677 531.963C745.737 531.963 743.94 531.333 743.287 530.073C742.96 529.373 742.75 528.767 742.657 528.253C742.61 527.74 742.587 526.923 742.587 525.803V501.233ZM754.067 488.283C753.74 488.937 753.134 489.403 752.247 489.683C751.36 489.963 750.17 490.103 748.677 490.103C747.23 490.103 746.064 489.963 745.177 489.683C744.29 489.403 743.66 488.913 743.287 488.213C742.96 487.513 742.75 486.907 742.657 486.393C742.61 485.833 742.587 485.017 742.587 483.943C742.587 482.87 742.61 482.077 742.657 481.563C742.75 481.003 742.96 480.397 743.287 479.743C743.94 478.483 745.76 477.853 748.747 477.853C751.687 477.853 753.46 478.483 754.067 479.743C754.44 480.443 754.65 481.073 754.697 481.633C754.79 482.147 754.837 482.94 754.837 484.013C754.837 485.087 754.79 485.903 754.697 486.463C754.65 486.977 754.44 487.583 754.067 488.283ZM784.369 498.993C784.649 496.38 786.492 495.073 789.899 495.073C791.719 495.073 793.072 495.213 793.959 495.493C794.846 495.773 795.452 496.263 795.779 496.963C796.152 497.663 796.362 498.293 796.409 498.853C796.502 499.367 796.549 500.16 796.549 501.233V525.733C796.549 526.807 796.502 527.623 796.409 528.183C796.362 528.697 796.176 529.303 795.849 530.003C795.196 531.217 793.586 531.823 791.019 531.823C788.499 531.823 786.796 531.52 785.909 530.913C785.069 530.26 784.579 529.327 784.439 528.113C782.712 530.587 779.819 531.823 775.759 531.823C771.746 531.823 768.012 529.98 764.559 526.293C761.106 522.607 759.379 518.337 759.379 513.483C759.379 508.583 761.106 504.313 764.559 500.673C768.059 496.987 771.886 495.143 776.039 495.143C777.626 495.143 779.072 495.423 780.379 495.983C781.686 496.543 782.596 497.08 783.109 497.593C783.622 498.06 784.042 498.527 784.369 498.993ZM771.629 513.553C771.629 515.093 772.236 516.493 773.449 517.753C774.662 518.967 776.132 519.573 777.859 519.573C779.586 519.573 781.009 518.943 782.129 517.683C783.296 516.423 783.879 515.047 783.879 513.553C783.879 512.013 783.319 510.59 782.199 509.283C781.126 507.977 779.656 507.323 777.789 507.323C775.969 507.323 774.476 507.977 773.309 509.283C772.189 510.59 771.629 512.013 771.629 513.553ZM802.128 483.873C802.128 482.8 802.151 482.007 802.198 481.493C802.291 480.933 802.501 480.303 802.828 479.603C803.481 478.343 805.301 477.713 808.288 477.713C811.135 477.713 812.908 478.343 813.608 479.603C813.981 480.303 814.191 480.933 814.238 481.493C814.331 482.053 814.378 482.87 814.378 483.943V516.353C814.378 518.033 814.518 519.107 814.798 519.573C815.078 519.993 815.685 520.203 816.618 520.203C817.598 520.203 818.251 520.25 818.578 520.343C818.905 520.39 819.301 520.577 819.768 520.903C820.701 521.51 821.168 523.167 821.168 525.873C821.168 528.813 820.701 530.61 819.768 531.263C818.555 532.103 815.661 532.243 811.088 531.683C807.495 531.217 805.161 530.027 804.088 528.113C802.781 525.827 802.128 522.187 802.128 517.193V483.873ZM854.284 513.553C854.284 515.513 854.937 517.053 856.244 518.173C857.55 519.247 858.927 519.783 860.374 519.783C861.867 519.783 863.244 519.363 864.504 518.523C865.81 517.637 866.86 517.193 867.654 517.193C869.054 517.193 870.757 518.43 872.764 520.903C873.837 522.257 874.374 523.47 874.374 524.543C874.374 526.317 873.09 527.973 870.524 529.513C867.864 531.38 864.597 532.313 860.724 532.313C856.384 532.313 852.207 530.75 848.194 527.623C846.28 526.13 844.717 524.147 843.504 521.673C842.29 519.153 841.684 516.4 841.684 513.413C841.684 510.38 842.29 507.65 843.504 505.223C844.717 502.75 846.28 500.767 848.194 499.273C852.067 496.193 856.197 494.653 860.584 494.653C862.357 494.653 864.084 494.91 865.764 495.423C867.444 495.89 868.68 496.357 869.474 496.823L870.594 497.523C871.434 498.083 872.087 498.527 872.554 498.853C873.767 499.787 874.374 500.86 874.374 502.073C874.374 503.24 873.884 504.57 872.904 506.063C871.224 508.63 869.614 509.913 868.074 509.913C867.187 509.913 865.927 509.4 864.294 508.373C863.454 507.58 862.24 507.183 860.654 507.183C859.114 507.183 857.667 507.743 856.314 508.863C854.96 509.983 854.284 511.547 854.284 513.553ZM877.846 513.553C877.846 507.953 879.806 503.333 883.726 499.693C887.646 496.053 892.126 494.233 897.166 494.233C902.206 494.233 906.662 496.053 910.536 499.693C914.409 503.287 916.346 507.883 916.346 513.483C916.346 517.357 915.342 520.81 913.336 523.843C911.329 526.83 908.879 529.047 905.986 530.493C903.139 531.893 900.176 532.593 897.096 532.593C894.016 532.593 891.029 531.847 888.136 530.353C885.242 528.813 882.792 526.573 880.786 523.633C878.826 520.647 877.846 517.287 877.846 513.553ZM892.476 518.593C893.969 519.713 895.486 520.273 897.026 520.273C898.566 520.273 900.106 519.69 901.646 518.523C903.186 517.357 903.956 515.63 903.956 513.343C903.956 511.057 903.232 509.353 901.786 508.233C900.339 507.113 898.776 506.553 897.096 506.553C895.416 506.553 893.852 507.137 892.406 508.303C890.959 509.47 890.236 511.197 890.236 513.483C890.236 515.723 890.982 517.427 892.476 518.593ZM941.378 495.073C946.045 495.073 949.918 496.87 952.998 500.463C956.125 504.01 957.688 508.35 957.688 513.483V525.803C957.688 526.877 957.642 527.693 957.548 528.253C957.502 528.767 957.315 529.35 956.988 530.003C956.335 531.263 954.515 531.893 951.528 531.893C948.215 531.893 946.302 531.03 945.788 529.303C945.508 528.51 945.368 527.32 945.368 525.733V513.413C945.368 511.5 944.808 510.007 943.688 508.933C942.615 507.86 941.145 507.323 939.278 507.323C937.458 507.323 935.965 507.883 934.798 509.003C933.678 510.123 933.118 511.593 933.118 513.413V525.803C933.118 526.877 933.072 527.693 932.978 528.253C932.932 528.767 932.722 529.35 932.348 530.003C931.742 531.263 929.945 531.893 926.958 531.893C924.018 531.893 922.222 531.263 921.568 530.003C921.242 529.303 921.032 528.697 920.938 528.183C920.892 527.623 920.868 526.807 920.868 525.733V500.953C920.868 499.927 920.892 499.157 920.938 498.643C921.032 498.083 921.265 497.477 921.638 496.823C922.292 495.657 924.088 495.073 927.028 495.073C929.875 495.073 931.625 495.61 932.278 496.683C932.745 497.477 932.978 498.433 932.978 499.553C933.165 499.227 933.585 498.76 934.238 498.153C934.892 497.547 935.522 497.057 936.128 496.683C937.715 495.61 939.465 495.073 941.378 495.073ZM963.6 528.673C962.713 528.113 962.27 527.227 962.27 526.013C962.27 524.8 963.156 522.957 964.93 520.483C965.443 519.69 966.26 519.293 967.38 519.293C968.546 519.293 970.11 519.877 972.07 521.043C974.03 522.163 975.803 522.723 977.39 522.723C980.236 522.723 981.66 522.163 981.66 521.043C981.66 520.157 980.096 519.503 976.97 519.083C974.03 518.663 971.113 517.567 968.22 515.793C966.866 514.953 965.746 513.647 964.86 511.873C963.973 510.053 963.53 507.907 963.53 505.433C963.53 498.06 968.593 494.373 978.72 494.373C982.033 494.373 985.44 495.167 988.94 496.753C990.573 497.5 991.39 498.433 991.39 499.553C991.39 500.673 990.876 502.05 989.85 503.683C988.823 505.317 987.773 506.133 986.7 506.133C986.14 506.133 985.09 505.783 983.55 505.083C982.056 504.383 980.423 504.033 978.65 504.033C975.896 504.033 974.52 504.547 974.52 505.573C974.52 506.973 976.106 507.883 979.28 508.303C982.36 508.63 985.346 509.517 988.24 510.963C989.593 511.617 990.713 512.76 991.6 514.393C992.533 515.98 993 517.987 993 520.413C993 522.84 992.533 524.917 991.6 526.643C990.713 528.323 989.453 529.583 987.82 530.423C984.833 531.87 981.076 532.593 976.55 532.593C972.07 532.593 967.753 531.287 963.6 528.673ZM997.568 541.973V501.093C997.568 500.02 997.591 499.227 997.638 498.713C997.731 498.2 997.941 497.617 998.268 496.963C998.921 495.703 1000.48 495.073 1002.96 495.073C1005.43 495.073 1007.09 495.4 1007.93 496.053C1008.81 496.66 1009.33 497.57 1009.47 498.783C1011.24 496.357 1014.02 495.143 1017.8 495.143C1021.62 495.143 1025.24 496.94 1028.65 500.533C1032.05 504.127 1033.76 508.303 1033.76 513.063C1033.76 517.823 1032.05 522 1028.65 525.593C1025.29 529.187 1021.69 530.983 1017.87 530.983C1014.04 530.983 1011.26 529.91 1009.54 527.763V541.903C1009.54 542.977 1009.49 543.77 1009.4 544.283C1009.35 544.797 1009.14 545.38 1008.77 546.033C1008.44 546.733 1007.86 547.223 1007.02 547.503C1006.18 547.783 1005.03 547.923 1003.59 547.923C1002.14 547.923 1000.97 547.783 1000.09 547.503C999.248 547.223 998.641 546.757 998.268 546.103C997.941 545.45 997.731 544.867 997.638 544.353C997.591 543.84 997.568 543.047 997.568 541.973ZM1011.43 509.003C1010.35 510.263 1009.82 511.64 1009.82 513.133C1009.82 514.627 1010.35 516.003 1011.43 517.263C1012.55 518.477 1013.95 519.083 1015.63 519.083C1017.35 519.083 1018.8 518.477 1019.97 517.263C1021.18 516.05 1021.79 514.673 1021.79 513.133C1021.79 511.593 1021.23 510.217 1020.11 509.003C1018.99 507.743 1017.52 507.113 1015.7 507.113C1013.92 507.113 1012.5 507.743 1011.43 509.003ZM1038.31 501.233C1038.31 500.16 1038.33 499.367 1038.38 498.853C1038.47 498.293 1038.68 497.663 1039.01 496.963C1039.66 495.75 1041.48 495.143 1044.47 495.143C1046.71 495.143 1048.3 495.54 1049.23 496.333C1050.02 496.987 1050.44 497.99 1050.49 499.343C1050.54 499.81 1050.56 500.487 1050.56 501.373V525.873C1050.56 526.947 1050.51 527.763 1050.42 528.323C1050.37 528.837 1050.16 529.443 1049.79 530.143C1049.18 531.357 1047.39 531.963 1044.4 531.963C1041.46 531.963 1039.66 531.333 1039.01 530.073C1038.68 529.373 1038.47 528.767 1038.38 528.253C1038.33 527.74 1038.31 526.923 1038.31 525.803V501.233ZM1049.79 488.283C1049.46 488.937 1048.86 489.403 1047.97 489.683C1047.08 489.963 1045.89 490.103 1044.4 490.103C1042.95 490.103 1041.79 489.963 1040.9 489.683C1040.01 489.403 1039.38 488.913 1039.01 488.213C1038.68 487.513 1038.47 486.907 1038.38 486.393C1038.33 485.833 1038.31 485.017 1038.31 483.943C1038.31 482.87 1038.33 482.077 1038.38 481.563C1038.47 481.003 1038.68 480.397 1039.01 479.743C1039.66 478.483 1041.48 477.853 1044.47 477.853C1047.41 477.853 1049.18 478.483 1049.79 479.743C1050.16 480.443 1050.37 481.073 1050.42 481.633C1050.51 482.147 1050.56 482.94 1050.56 484.013C1050.56 485.087 1050.51 485.903 1050.42 486.463C1050.37 486.977 1050.16 487.583 1049.79 488.283ZM1081.21 495.493C1082.1 495.773 1082.82 496.263 1083.38 496.963C1083.99 497.617 1084.29 498.69 1084.29 500.183C1084.29 501.677 1083.85 503.31 1082.96 505.083C1082.07 506.857 1080.79 507.743 1079.11 507.743C1078.27 507.743 1077.45 507.557 1076.66 507.183C1075.91 506.81 1074.91 506.623 1073.65 506.623C1072.39 506.623 1071.2 507.067 1070.08 507.953C1069.01 508.84 1068.47 509.913 1068.47 511.173V525.873C1068.47 526.947 1068.42 527.763 1068.33 528.323C1068.28 528.837 1068.07 529.443 1067.7 530.143C1067 531.357 1065.18 531.963 1062.24 531.963C1060 531.963 1058.39 531.567 1057.41 530.773C1056.66 530.12 1056.24 529.117 1056.15 527.763C1056.15 527.297 1056.15 526.62 1056.15 525.733V501.163C1056.15 500.09 1056.17 499.297 1056.22 498.783C1056.31 498.223 1056.52 497.617 1056.85 496.963C1057.5 495.703 1059.32 495.073 1062.31 495.073C1065.11 495.073 1066.86 495.61 1067.56 496.683C1068.07 497.43 1068.33 498.2 1068.33 498.993C1068.56 498.667 1068.89 498.27 1069.31 497.803C1069.78 497.337 1070.73 496.707 1072.18 495.913C1073.63 495.12 1074.89 494.723 1075.96 494.723C1077.08 494.723 1078.01 494.793 1078.76 494.933C1079.51 495.027 1080.32 495.213 1081.21 495.493ZM1109.96 498.993C1110.24 496.38 1112.09 495.073 1115.49 495.073C1117.31 495.073 1118.67 495.213 1119.55 495.493C1120.44 495.773 1121.05 496.263 1121.37 496.963C1121.75 497.663 1121.96 498.293 1122 498.853C1122.1 499.367 1122.14 500.16 1122.14 501.233V525.733C1122.14 526.807 1122.1 527.623 1122 528.183C1121.96 528.697 1121.77 529.303 1121.44 530.003C1120.79 531.217 1119.18 531.823 1116.61 531.823C1114.09 531.823 1112.39 531.52 1111.5 530.913C1110.66 530.26 1110.17 529.327 1110.03 528.113C1108.31 530.587 1105.41 531.823 1101.35 531.823C1097.34 531.823 1093.61 529.98 1090.15 526.293C1086.7 522.607 1084.97 518.337 1084.97 513.483C1084.97 508.583 1086.7 504.313 1090.15 500.673C1093.65 496.987 1097.48 495.143 1101.63 495.143C1103.22 495.143 1104.67 495.423 1105.97 495.983C1107.28 496.543 1108.19 497.08 1108.7 497.593C1109.22 498.06 1109.64 498.527 1109.96 498.993ZM1097.22 513.553C1097.22 515.093 1097.83 516.493 1099.04 517.753C1100.26 518.967 1101.73 519.573 1103.45 519.573C1105.18 519.573 1106.6 518.943 1107.72 517.683C1108.89 516.423 1109.47 515.047 1109.47 513.553C1109.47 512.013 1108.91 510.59 1107.79 509.283C1106.72 507.977 1105.25 507.323 1103.38 507.323C1101.56 507.323 1100.07 507.977 1098.9 509.283C1097.78 510.59 1097.22 512.013 1097.22 513.553ZM1139.27 513.553C1139.27 515.513 1139.93 517.053 1141.23 518.173C1142.54 519.247 1143.92 519.783 1145.36 519.783C1146.86 519.783 1148.23 519.363 1149.49 518.523C1150.8 517.637 1151.85 517.193 1152.64 517.193C1154.04 517.193 1155.75 518.43 1157.75 520.903C1158.83 522.257 1159.36 523.47 1159.36 524.543C1159.36 526.317 1158.08 527.973 1155.51 529.513C1152.85 531.38 1149.59 532.313 1145.71 532.313C1141.37 532.313 1137.2 530.75 1133.18 527.623C1131.27 526.13 1129.71 524.147 1128.49 521.673C1127.28 519.153 1126.67 516.4 1126.67 513.413C1126.67 510.38 1127.28 507.65 1128.49 505.223C1129.71 502.75 1131.27 500.767 1133.18 499.273C1137.06 496.193 1141.19 494.653 1145.57 494.653C1147.35 494.653 1149.07 494.91 1150.75 495.423C1152.43 495.89 1153.67 496.357 1154.46 496.823L1155.58 497.523C1156.42 498.083 1157.08 498.527 1157.54 498.853C1158.76 499.787 1159.36 500.86 1159.36 502.073C1159.36 503.24 1158.87 504.57 1157.89 506.063C1156.21 508.63 1154.6 509.913 1153.06 509.913C1152.18 509.913 1150.92 509.4 1149.28 508.373C1148.44 507.58 1147.23 507.183 1145.64 507.183C1144.1 507.183 1142.66 507.743 1141.3 508.863C1139.95 509.983 1139.27 511.547 1139.27 513.553ZM1196.82 495.493C1199.57 496.707 1200.95 498.177 1200.95 499.903C1200.95 500.743 1200.76 501.537 1200.39 502.283C1200.02 503.03 1199.83 503.427 1199.83 503.473L1181.49 544.493C1181.12 545.38 1180.79 546.057 1180.51 546.523C1180.28 546.99 1179.88 547.433 1179.32 547.853C1178.76 548.273 1178.06 548.483 1177.22 548.483C1176.38 548.483 1175.14 548.133 1173.51 547.433C1170.76 546.22 1169.38 544.773 1169.38 543.093C1169.38 541.973 1171.62 536.63 1176.1 527.063L1162.17 503.613C1161.24 502.073 1160.77 500.93 1160.77 500.183C1160.77 498.69 1162.03 497.197 1164.55 495.703C1166.14 494.77 1167.37 494.303 1168.26 494.303C1169.15 494.303 1169.87 494.49 1170.43 494.863C1170.99 495.237 1171.39 495.633 1171.62 496.053C1171.9 496.427 1173.18 498.597 1175.47 502.563C1177.8 506.483 1180.02 510.147 1182.12 513.553C1182.35 512.807 1183.61 509.937 1185.9 504.943C1188.19 499.903 1189.4 497.22 1189.54 496.893C1189.73 496.567 1190.01 496.17 1190.38 495.703C1190.99 494.91 1191.83 494.513 1192.9 494.513C1194.02 494.513 1195.33 494.84 1196.82 495.493ZM1245.85 527.343C1244.08 529.677 1241.25 530.843 1237.38 530.843C1233.51 530.843 1229.87 529.07 1226.46 525.523C1223.1 521.93 1221.42 517.753 1221.42 512.993C1221.42 508.233 1223.12 504.057 1226.53 500.463C1229.94 496.87 1233.67 495.073 1237.73 495.073C1239.32 495.073 1240.76 495.377 1242.07 495.983C1243.38 496.543 1244.26 497.08 1244.73 497.593C1245.24 498.06 1245.64 498.503 1245.92 498.923C1246.06 497.617 1246.53 496.637 1247.32 495.983C1248.16 495.283 1249.49 494.933 1251.31 494.933C1253.13 494.933 1254.46 495.073 1255.3 495.353C1256.14 495.633 1256.72 496.123 1257.05 496.823C1257.42 497.477 1257.63 498.06 1257.68 498.573C1257.77 499.087 1257.82 499.88 1257.82 500.953V529.933C1257.82 535.3 1255.95 539.617 1252.22 542.883C1248.49 546.197 1244.29 547.853 1239.62 547.853C1236.07 547.853 1232.69 546.99 1229.47 545.263C1226.25 543.537 1224.64 541.973 1224.64 540.573C1224.64 538.753 1225.34 537.143 1226.74 535.743C1227.63 534.763 1228.3 534.087 1228.77 533.713C1229.28 533.34 1229.87 533.153 1230.52 533.153C1231.17 533.153 1231.85 533.433 1232.55 533.993C1234.79 535.72 1237.22 536.583 1239.83 536.583C1241.6 536.583 1243.05 535.883 1244.17 534.483C1245.29 533.083 1245.85 531.403 1245.85 529.443V527.343ZM1233.39 513.063C1233.39 514.557 1233.97 515.91 1235.14 517.123C1236.35 518.337 1237.8 518.943 1239.48 518.943C1241.21 518.943 1242.63 518.337 1243.75 517.123C1244.87 515.863 1245.43 514.51 1245.43 513.063C1245.43 511.57 1244.89 510.193 1243.82 508.933C1242.75 507.627 1241.3 506.973 1239.48 506.973C1237.66 506.973 1236.19 507.603 1235.07 508.863C1233.95 510.123 1233.39 511.523 1233.39 513.063ZM1287.36 498.993C1287.64 496.38 1289.48 495.073 1292.89 495.073C1294.71 495.073 1296.06 495.213 1296.95 495.493C1297.83 495.773 1298.44 496.263 1298.77 496.963C1299.14 497.663 1299.35 498.293 1299.4 498.853C1299.49 499.367 1299.54 500.16 1299.54 501.233V525.733C1299.54 526.807 1299.49 527.623 1299.4 528.183C1299.35 528.697 1299.16 529.303 1298.84 530.003C1298.18 531.217 1296.57 531.823 1294.01 531.823C1291.49 531.823 1289.78 531.52 1288.9 530.913C1288.06 530.26 1287.57 529.327 1287.43 528.113C1285.7 530.587 1282.81 531.823 1278.75 531.823C1274.73 531.823 1271 529.98 1267.55 526.293C1264.09 522.607 1262.37 518.337 1262.37 513.483C1262.37 508.583 1264.09 504.313 1267.55 500.673C1271.05 496.987 1274.87 495.143 1279.03 495.143C1280.61 495.143 1282.06 495.423 1283.37 495.983C1284.67 496.543 1285.58 497.08 1286.1 497.593C1286.61 498.06 1287.03 498.527 1287.36 498.993ZM1274.62 513.553C1274.62 515.093 1275.22 516.493 1276.44 517.753C1277.65 518.967 1279.12 519.573 1280.85 519.573C1282.57 519.573 1284 518.943 1285.12 517.683C1286.28 516.423 1286.87 515.047 1286.87 513.553C1286.87 512.013 1286.31 510.59 1285.19 509.283C1284.11 507.977 1282.64 507.323 1280.78 507.323C1278.96 507.323 1277.46 507.977 1276.3 509.283C1275.18 510.59 1274.62 512.013 1274.62 513.553ZM1317.16 499.973C1319.35 496.66 1321.99 495.003 1325.07 495.003C1329.83 495.003 1333.37 497.033 1335.71 501.093C1336.22 500.393 1336.83 499.67 1337.53 498.923C1338.27 498.13 1339.44 497.29 1341.03 496.403C1342.61 495.47 1344.25 495.003 1345.93 495.003C1349.66 495.003 1352.79 496.45 1355.31 499.343C1357.83 502.19 1359.09 506.927 1359.09 513.553V525.803C1359.09 526.877 1359.04 527.693 1358.95 528.253C1358.9 528.767 1358.69 529.373 1358.32 530.073C1357.71 531.333 1355.91 531.963 1352.93 531.963C1349.99 531.963 1348.19 531.31 1347.54 530.003C1347.21 529.303 1347 528.697 1346.91 528.183C1346.86 527.623 1346.84 526.807 1346.84 525.733V513.483C1346.84 509.423 1345.39 507.393 1342.5 507.393C1340.86 507.393 1339.74 507.93 1339.14 509.003C1338.58 510.077 1338.3 511.593 1338.3 513.553V525.803C1338.3 526.923 1338.25 527.74 1338.16 528.253C1338.11 528.767 1337.9 529.373 1337.53 530.073C1336.87 531.333 1335.05 531.963 1332.07 531.963C1329.13 531.963 1327.33 531.31 1326.68 530.003C1326.35 529.303 1326.14 528.697 1326.05 528.183C1326 527.623 1325.98 526.807 1325.98 525.733V513.483C1325.98 509.423 1324.53 507.393 1321.64 507.393C1318.84 507.393 1317.44 509.423 1317.44 513.483V525.873C1317.44 526.947 1317.39 527.763 1317.3 528.323C1317.25 528.837 1317.04 529.443 1316.67 530.143C1315.97 531.357 1314.15 531.963 1311.21 531.963C1308.27 531.963 1306.47 531.333 1305.82 530.073C1305.49 529.373 1305.28 528.767 1305.19 528.253C1305.14 527.74 1305.12 526.923 1305.12 525.803V501.163C1305.12 500.09 1305.14 499.297 1305.19 498.783C1305.28 498.223 1305.51 497.617 1305.89 496.963C1306.59 495.703 1308.24 495.073 1310.86 495.073C1313.47 495.073 1315.17 495.493 1315.97 496.333C1316.76 497.173 1317.16 498.387 1317.16 499.973ZM1400.22 509.143C1400.22 511.99 1399.49 514.113 1398.05 515.513C1396.65 516.867 1395.08 517.543 1393.36 517.543H1376.77C1376.77 518.85 1377.54 519.947 1379.08 520.833C1380.62 521.72 1382.16 522.163 1383.7 522.163C1386.4 522.163 1388.53 521.883 1390.07 521.323L1390.84 521.043C1391.96 520.53 1392.89 520.273 1393.64 520.273C1395.13 520.273 1396.41 521.323 1397.49 523.423C1398.09 524.683 1398.4 525.757 1398.4 526.643C1398.4 530.797 1393.43 532.873 1383.49 532.873C1380.03 532.873 1376.95 532.29 1374.25 531.123C1371.59 529.91 1369.51 528.323 1368.02 526.363C1365.08 522.583 1363.61 518.36 1363.61 513.693C1363.61 507.813 1365.5 503.123 1369.28 499.623C1373.1 496.077 1377.86 494.303 1383.56 494.303C1390.04 494.303 1394.8 496.59 1397.84 501.163C1399.42 503.59 1400.22 506.25 1400.22 509.143ZM1385.45 511.173C1387.22 511.173 1388.11 510.427 1388.11 508.933C1388.11 507.86 1387.69 506.997 1386.85 506.343C1386.05 505.69 1384.89 505.363 1383.35 505.363C1381.85 505.363 1380.36 505.993 1378.87 507.253C1377.37 508.467 1376.63 509.773 1376.63 511.173H1385.45Z" fill="white"/>
</svg>
